# xmcd CD database file
# Copyright (C) 1993-1998 Ti Kan
# 
# Track frame offsets:
#     150
#     19513
#     39798
#     58874
#     79124
#     97489
#     115774
#     133544
#     153677
#     170350
#     188278
# 
# Disc length: 2770 seconds
# 
# Revision: 1
# Processed by: cddbd v1.4b41PL1 Copyright (c) Steve Scherf et al.
# Submitted via: DiscPlay 4.0.4
# 
DISCID=840ad00b
DTITLE=Kimberely Scott - Kimberely Scott
DYEAR=1900
DGENRE=
TTITLE0=Kickin' It By Myself
TTITLE1=Tuck Me In
TTITLE2=I Got Your Back
TTITLE3=You NEver Know
TTITLE4=Ain't Nothin' But A Party
TTITLE5=Let Your Spirit Fly
TTITLE6=Never Can Say Goodbye
TTITLE7=Don't Leave Me Alone
TTITLE8=Come To Life
TTITLE9=Tuck Me In (Wyuclef's Remix)
TTITLE10=Let Me Be Your Angel
EXTD=
EXTT0=
EXTT1=
EXTT2=
EXTT3=
EXTT4=
EXTT5=
EXTT6=
EXTT7=
EXTT8=
EXTT9=
EXTT10=
PLAYORDER=
